<svg xmlns="http://www.w3.org/2000/svg" viewBox="0 0 1200 800"><defs><radialGradient id="g" cx="70%" cy="20%" r="60%"><stop stop-color="#1fd6ff" stop-opacity=".35"/><stop offset="1" stop-color="#06111f"/></radialGradient></defs><rect width="1200" height="800" fill="#06111f"/><rect width="1200" height="800" fill="url(#g)"/><path d="M0 580 C220 520 300 680 510 590 S850 500 1200 610" fill="none" stroke="#23d7ff" stroke-width="3" opacity=".45"/><g opacity=".20" stroke="#7eeaff"><path d="M110 0v800M240 0v800M370 0v800M500 0v800M630 0v800M760 0v800M890 0v800M1020 0v800"/><path d="M0 120h1200M0 240h1200M0 360h1200M0 480h1200M0 600h1200M0 720h1200"/></g></svg>
